<svg width="17" height="17" viewBox="0 0 17 17" fill="none" xmlns="http://www.w3.org/2000/svg">
<path d="M3.76417 16.3272C2.99544 17.096 1.7491 17.096 0.980374 16.3272C0.211651 15.5585 0.211651 14.3122 0.980374 13.5435L13.0435 1.48035C13.8122 0.711628 15.0585 0.711628 15.8273 1.48035C16.596 2.24907 16.596 3.49542 15.8273 4.26414L3.76417 16.3272Z" fill="#2D8D79"/>
<path d="M0.980351 4.26417C0.211628 3.49544 0.211628 2.2491 0.980351 1.48037C1.74907 0.711652 2.99542 0.711652 3.76414 1.48037L15.8272 13.5435C16.596 14.3122 16.596 15.5585 15.8272 16.3273C15.0585 17.096 13.8122 17.096 13.0435 16.3273L0.980351 4.26417Z" fill="#2D8D79"/>
</svg>
