<svg width="13" height="16" viewBox="0 0 13 16" fill="none" xmlns="http://www.w3.org/2000/svg">
<path d="M0.888889 14.2222C0.888889 15.2044 1.68444 16 2.66667 16H9.77778C10.76 16 11.5556 15.2044 11.5556 14.2222V4.55556C11.5556 4.00327 11.1078 3.55556 10.5556 3.55556H1.88889C1.33661 3.55556 0.888889 4.00327 0.888889 4.55556V14.2222ZM12.4444 1.77778C12.4444 1.28686 12.0465 0.888889 11.5556 0.888889H9.74755C9.48233 0.888889 9.22798 0.783532 9.04044 0.595995L8.73734 0.292893C8.5498 0.105357 8.29545 0 8.03023 0H4.41421C4.149 0 3.89464 0.105357 3.70711 0.292893L3.404 0.595996C3.21647 0.783532 2.96211 0.888889 2.6969 0.888889H0.888888C0.397968 0.888889 0 1.28686 0 1.77778C0 2.2687 0.397969 2.66667 0.888889 2.66667H11.5556C12.0465 2.66667 12.4444 2.2687 12.4444 1.77778Z" fill="#2D8D79"/>
</svg>
