<svg width="13" height="16" viewBox="0 0 13 16" fill="none" xmlns="http://www.w3.org/2000/svg">
<path d="M8.29289 0.292894C8.10536 0.105357 7.851 0 7.58579 0H1.6C0.716 0 0.00800018 0.716 0.00800018 1.6L0 14.4C0 15.284 0.708 16 1.592 16H11.2C12.084 16 12.8 15.284 12.8 14.4V5.21421C12.8 4.949 12.6946 4.69464 12.5071 4.50711L8.29289 0.292894ZM9.6 12C9.6 12.4418 9.24183 12.8 8.8 12.8H4C3.55817 12.8 3.2 12.4418 3.2 12V12C3.2 11.5582 3.55817 11.2 4 11.2H8.8C9.24183 11.2 9.6 11.5582 9.6 12V12ZM9.6 8.8C9.6 9.24183 9.24183 9.6 8.8 9.6H4C3.55817 9.6 3.2 9.24183 3.2 8.8V8.8C3.2 8.35817 3.55817 8 4 8H8.8C9.24183 8 9.6 8.35817 9.6 8.8V8.8ZM8.2 5.6C7.64772 5.6 7.2 5.15228 7.2 4.6V3.61421C7.2 2.72331 8.27714 2.27714 8.90711 2.90711L9.89289 3.89289C10.5229 4.52286 10.0767 5.6 9.18579 5.6H8.2Z" fill="#2D8D79"/>
</svg>
