<svg width="16" height="16" viewBox="0 0 16 16" fill="none" xmlns="http://www.w3.org/2000/svg">
<path d="M0.292893 12.3733C0.105357 12.5608 0 12.8152 0 13.0804V15C0 15.5523 0.447715 16 1 16H2.91958C3.1848 16 3.43915 15.8946 3.62669 15.7071L12.4636 6.87019C12.8541 6.47966 12.8541 5.8465 12.4636 5.45597L10.544 3.53639C10.1535 3.14586 9.52034 3.14586 9.12982 3.53639L0.292893 12.3733ZM15.74 3.59383C16.0867 3.24712 16.0867 2.68259 15.74 2.33588L13.6641 0.260036C13.3174 -0.0866787 12.7529 -0.0866787 12.4062 0.260036L11.4864 1.17982C11.0959 1.57035 11.0959 2.20351 11.4864 2.59404L13.406 4.51362C13.7965 4.90414 14.4297 4.90414 14.8202 4.51362L15.74 3.59383Z" fill="#2D8D79"/>
</svg>
