<svg width="16" height="16" viewBox="0 0 16 16" fill="none" xmlns="http://www.w3.org/2000/svg">
<path d="M5.3 5.2H1.7C1.59492 5.20005 1.49087 5.17939 1.3938 5.13921C1.29668 5.09902 1.2085 5.04014 1.13418 4.96582C1.05986 4.8915 1.00098 4.80332 0.960791 4.7062C0.941406 4.65938 0.926562 4.61094 0.916406 4.56152C0.905469 4.5085 0.899951 4.45439 0.9 4.4V0.8C0.9 0.587842 0.984277 0.384326 1.13433 0.234326C1.28433 0.0842773 1.48784 0 1.7 0C1.91216 0 2.11567 0.0842773 2.26567 0.234326C2.41572 0.384326 2.5 0.587842 2.5 0.8V2.19609C3.20601 1.52607 4.03311 0.986133 4.94429 0.608691C6.5709 -0.0650879 8.37441 -0.183154 10.075 0.272803C11.7755 0.72876 13.2781 1.7333 14.3494 3.13047C15.4207 4.52764 16.0009 6.23936 16 8C16 8.10508 15.9794 8.20913 15.9392 8.30625C15.899 8.40332 15.8401 8.49155 15.7658 8.56582C15.6915 8.64014 15.6033 8.69907 15.5062 8.73926C15.4091 8.77944 15.3051 8.80005 15.2 8.8C15.1348 8.80005 15.0699 8.79209 15.0069 8.77647C14.9684 8.76689 14.9306 8.75449 14.8938 8.73926C14.7967 8.69907 14.7085 8.64014 14.6342 8.56582C14.5599 8.49155 14.501 8.40332 14.4608 8.30625C14.4206 8.20913 14.4 8.10508 14.4 8C14.4009 6.59141 13.9368 5.22192 13.0796 4.1041C12.2225 2.98628 11.0204 2.18271 9.65977 1.81802C8.29922 1.45337 6.8563 1.5481 5.55503 2.0874C4.71938 2.43374 3.97217 2.95103 3.35811 3.6H5.3C5.51216 3.6 5.71567 3.68428 5.86567 3.83433C6.01572 3.98433 6.1 4.18784 6.1 4.4C6.1 4.61216 6.01572 4.81567 5.86567 4.96567C5.71567 5.11572 5.51216 5.2 5.3 5.2Z" fill="#2D8D79"/>
<path d="M14.1071 15.9766C14.0686 15.967 14.0307 15.9545 13.9938 15.9393C13.8967 15.8991 13.8085 15.8401 13.7342 15.7658C13.6964 15.7281 13.6626 15.6868 13.6333 15.6425C13.6048 15.5996 13.5806 15.554 13.5608 15.5063C13.5206 15.4091 13.5 15.3051 13.5 15.2V13.7988C13.0456 14.2295 12.5405 14.6075 11.9938 14.9233C10.7795 15.625 9.40249 15.9962 8 16C5.87905 15.9975 3.84565 15.1539 2.3459 13.6541C0.846143 12.1543 0.00249023 10.1209 0 8C0 7.78784 0.0842773 7.58433 0.234326 7.43433C0.384326 7.28428 0.587842 7.2 0.8 7.2C1.01216 7.2 1.21567 7.28428 1.36567 7.43433C1.51572 7.58433 1.6 7.78784 1.6 8C1.59912 9.40859 2.06323 10.7781 2.92036 11.8959C3.77749 13.0137 4.97964 13.8173 6.34023 14.182C7.70078 14.5466 9.1437 14.452 10.445 13.9126C11.2806 13.5663 12.0278 13.049 12.6419 12.4H10.7C10.4878 12.4 10.2843 12.3157 10.1343 12.1657C9.98428 12.0157 9.9 11.8122 9.9 11.6C9.9 11.3878 9.98428 11.1844 10.1343 11.0343C10.2843 10.8843 10.4878 10.8 10.7 10.8H14.3C14.4051 10.8 14.5091 10.8206 14.6062 10.8608C14.7033 10.901 14.7915 10.9599 14.8658 11.0342C14.8912 11.0595 14.9147 11.0865 14.9363 11.1148C14.9781 11.1697 15.0127 11.2298 15.0392 11.2938C15.0601 11.3443 15.0757 11.3967 15.0859 11.4501C15.0953 11.4994 15.1 11.5496 15.1 11.6V15.2C15.1 15.3051 15.0794 15.4091 15.0392 15.5063C14.999 15.6033 14.9401 15.6916 14.8658 15.7658C14.7915 15.8401 14.7033 15.8991 14.6062 15.9393C14.5091 15.9794 14.4051 16.0001 14.3 16C14.2348 16 14.17 15.9921 14.1071 15.9766Z" fill="#2D8D79"/>
</svg>
