<svg width="18" height="16" viewBox="0 0 18 16" fill="none" xmlns="http://www.w3.org/2000/svg">
<path d="M12.3705 10.0629H11.6327L11.3775 9.81132C12.2869 8.77301 12.8345 7.42367 12.8345 5.94625C12.8345 2.66209 10.1339 0 6.80223 0C3.47058 0 0.769989 2.66209 0.769989 5.94625C0.769989 9.23042 3.47058 11.8925 6.80223 11.8925C8.30101 11.8925 9.66987 11.3528 10.7232 10.4608L10.9784 10.7124V11.4351L15.6186 16L17.0014 14.6369L12.3705 10.0629ZM6.80223 10.0629C4.49606 10.0629 2.62606 8.21955 2.62606 5.94625C2.62606 3.67296 4.49606 1.82962 6.80223 1.82962C9.10841 1.82962 10.9784 3.67296 10.9784 5.94625C10.9784 8.21955 9.10841 10.0629 6.80223 10.0629Z" fill="#2D8D79"/>
</svg>
