<svg width="0" height="0">
  <symbol xmlns="http://www.w3.org/2000/svg" viewBox="0 0 16 16" id="icon--edit">
    <path d="M0.292893 12.3733C0.105357 12.5608 0 12.8152 0 13.0804V15C0 15.5523 0.447715 16 1 16H2.91958C3.1848 16 3.43915 15.8946 3.62669 15.7071L12.4636 6.87019C12.8541 6.47966 12.8541 5.8465 12.4636 5.45597L10.544 3.53639C10.1535 3.14586 9.52034 3.14586 9.12982 3.53639L0.292893 12.3733ZM15.74 3.59383C16.0867 3.24712 16.0867 2.68259 15.74 2.33588L13.6641 0.260036C13.3174 -0.0866787 12.7529 -0.0866787 12.4062 0.260036L11.4864 1.17982C11.0959 1.57035 11.0959 2.20351 11.4864 2.59404L13.406 4.51362C13.7965 4.90414 14.4297 4.90414 14.8202 4.51362L15.74 3.59383Z"/>
  </symbol>
  <symbol xmlns="http://www.w3.org/2000/svg" viewBox="0 0 16 16" id="icon--inProcess">
    <path d="M5.3 5.2H1.7C1.59492 5.20005 1.49087 5.17939 1.3938 5.13921C1.29668 5.09902 1.2085 5.04014 1.13418 4.96582C1.05986 4.8915 1.00098 4.80332 0.960791 4.7062C0.941406 4.65938 0.926562 4.61094 0.916406 4.56152C0.905469 4.5085 0.899951 4.45439 0.9 4.4V0.8C0.9 0.587842 0.984277 0.384326 1.13433 0.234326C1.28433 0.0842773 1.48784 0 1.7 0C1.91216 0 2.11567 0.0842773 2.26567 0.234326C2.41572 0.384326 2.5 0.587842 2.5 0.8V2.19609C3.20601 1.52607 4.03311 0.986133 4.94429 0.608691C6.5709 -0.0650879 8.37441 -0.183154 10.075 0.272803C11.7755 0.72876 13.2781 1.7333 14.3494 3.13047C15.4207 4.52764 16.0009 6.23936 16 8C16 8.10508 15.9794 8.20913 15.9392 8.30625C15.899 8.40332 15.8401 8.49155 15.7658 8.56582C15.6915 8.64014 15.6033 8.69907 15.5062 8.73926C15.4091 8.77944 15.3051 8.80005 15.2 8.8C15.1348 8.80005 15.0699 8.79209 15.0069 8.77647C14.9684 8.76689 14.9306 8.75449 14.8938 8.73926C14.7967 8.69907 14.7085 8.64014 14.6342 8.56582C14.5599 8.49155 14.501 8.40332 14.4608 8.30625C14.4206 8.20913 14.4 8.10508 14.4 8C14.4009 6.59141 13.9368 5.22192 13.0796 4.1041C12.2225 2.98628 11.0204 2.18271 9.65977 1.81802C8.29922 1.45337 6.8563 1.5481 5.55503 2.0874C4.71938 2.43374 3.97217 2.95103 3.35811 3.6H5.3C5.51216 3.6 5.71567 3.68428 5.86567 3.83433C6.01572 3.98433 6.1 4.18784 6.1 4.4C6.1 4.61216 6.01572 4.81567 5.86567 4.96567C5.71567 5.11572 5.51216 5.2 5.3 5.2Z"/>
    <path d="M14.1071 15.9766C14.0686 15.967 14.0307 15.9545 13.9938 15.9393C13.8967 15.8991 13.8085 15.8401 13.7342 15.7658C13.6964 15.7281 13.6626 15.6868 13.6333 15.6425C13.6048 15.5996 13.5806 15.554 13.5608 15.5063C13.5206 15.4091 13.5 15.3051 13.5 15.2V13.7988C13.0456 14.2295 12.5405 14.6075 11.9938 14.9233C10.7795 15.625 9.40249 15.9962 8 16C5.87905 15.9975 3.84565 15.1539 2.3459 13.6541C0.846143 12.1543 0.00249023 10.1209 0 8C0 7.78784 0.0842773 7.58433 0.234326 7.43433C0.384326 7.28428 0.587842 7.2 0.8 7.2C1.01216 7.2 1.21567 7.28428 1.36567 7.43433C1.51572 7.58433 1.6 7.78784 1.6 8C1.59912 9.40859 2.06323 10.7781 2.92036 11.8959C3.77749 13.0137 4.97964 13.8173 6.34023 14.182C7.70078 14.5466 9.1437 14.452 10.445 13.9126C11.2806 13.5663 12.0278 13.049 12.6419 12.4H10.7C10.4878 12.4 10.2843 12.3157 10.1343 12.1657C9.98428 12.0157 9.9 11.8122 9.9 11.6C9.9 11.3878 9.98428 11.1844 10.1343 11.0343C10.2843 10.8843 10.4878 10.8 10.7 10.8H14.3C14.4051 10.8 14.5091 10.8206 14.6062 10.8608C14.7033 10.901 14.7915 10.9599 14.8658 11.0342C14.8912 11.0595 14.9147 11.0865 14.9363 11.1148C14.9781 11.1697 15.0127 11.2298 15.0392 11.2938C15.0601 11.3443 15.0757 11.3967 15.0859 11.4501C15.0953 11.4994 15.1 11.5496 15.1 11.6V15.2C15.1 15.3051 15.0794 15.4091 15.0392 15.5063C14.999 15.6033 14.9401 15.6916 14.8658 15.7658C14.7915 15.8401 14.7033 15.8991 14.6062 15.9393C14.5091 15.9794 14.4051 16.0001 14.3 16C14.2348 16 14.17 15.9921 14.1071 15.9766Z"/>
  </symbol>
  <symbol xmlns="http://www.w3.org/2000/svg" viewBox="0 0 13 16" id="icon--delete">
    <path d="M0.888889 14.2222C0.888889 15.2044 1.68444 16 2.66667 16H9.77778C10.76 16 11.5556 15.2044 11.5556 14.2222V4.55556C11.5556 4.00327 11.1078 3.55556 10.5556 3.55556H1.88889C1.33661 3.55556 0.888889 4.00327 0.888889 4.55556V14.2222ZM12.4444 1.77778C12.4444 1.28686 12.0465 0.888889 11.5556 0.888889H9.74755C9.48233 0.888889 9.22798 0.783532 9.04044 0.595995L8.73734 0.292893C8.5498 0.105357 8.29545 0 8.03023 0H4.41421C4.149 0 3.89464 0.105357 3.70711 0.292893L3.404 0.595996C3.21647 0.783532 2.96211 0.888889 2.6969 0.888889H0.888888C0.397968 0.888889 0 1.28686 0 1.77778C0 2.2687 0.397969 2.66667 0.888889 2.66667H11.5556C12.0465 2.66667 12.4444 2.2687 12.4444 1.77778Z"/>
  </symbol>
  <symbol xmlns="http://www.w3.org/2000/svg" viewBox="0 0 18 16" id="icon--search">
    <path d="M12.3705 10.0629H11.6327L11.3775 9.81132C12.2869 8.77301 12.8345 7.42367 12.8345 5.94625C12.8345 2.66209 10.1339 0 6.80223 0C3.47058 0 0.769989 2.66209 0.769989 5.94625C0.769989 9.23042 3.47058 11.8925 6.80223 11.8925C8.30101 11.8925 9.66987 11.3528 10.7232 10.4608L10.9784 10.7124V11.4351L15.6186 16L17.0014 14.6369L12.3705 10.0629ZM6.80223 10.0629C4.49606 10.0629 2.62606 8.21955 2.62606 5.94625C2.62606 3.67296 4.49606 1.82962 6.80223 1.82962C9.10841 1.82962 10.9784 3.67296 10.9784 5.94625C10.9784 8.21955 9.10841 10.0629 6.80223 10.0629Z"/>
  </symbol>
  <symbol xmlns="http://www.w3.org/2000/svg" viewBox="0 0 16 16" id="icon--add">
    <path d="M7 1.5C7 0.671573 7.67157 0 8.5 0C9.32843 0 10 0.671573 10 1.5V14.5C10 15.3284 9.32843 16 8.5 16C7.67157 16 7 15.3284 7 14.5V1.5Z"/>
    <path d="M2 9.5C1.17157 9.5 0.5 8.82843 0.5 8C0.5 7.17157 1.17157 6.5 2 6.5H15C15.8284 6.5 16.5 7.17157 16.5 8C16.5 8.82843 15.8284 9.5 15 9.5H2Z"/>
  </symbol>
  <symbol xmlns="http://www.w3.org/2000/svg" viewBox="0 0 18 16" id="icon--complete">
    <path d="M7.49081 15.1355C7.09603 15.5933 6.38841 15.5989 5.98648 15.1473L0.571959 9.06369C0.243125 8.69422 0.233794 8.13986 0.55001 7.75953L1.9485 6.07752C2.34218 5.60402 3.06615 5.59542 3.47096 6.05942L5.99186 8.94887C6.39038 9.40565 7.1004 9.40565 7.49892 8.94888L14.5701 0.843847C14.9626 0.39404 15.6591 0.386006 16.0618 0.826642L17.4011 2.29206C17.7428 2.6659 17.751 3.23615 17.4203 3.6197L7.49081 15.1355Z"/>
  </symbol>
</svg>