<svg width="15" height="16" viewBox="0 0 15 16" fill="none" xmlns="http://www.w3.org/2000/svg">
<path d="M4.8 8C4.8 7.55817 4.44183 7.2 4 7.2V7.2C3.55817 7.2 3.2 7.55817 3.2 8V8C3.2 8.44183 3.55817 8.8 4 8.8V8.8C4.44183 8.8 4.8 8.44183 4.8 8V8ZM8 8C8 7.55817 7.64183 7.2 7.2 7.2V7.2C6.75817 7.2 6.4 7.55817 6.4 8V8C6.4 8.44183 6.75817 8.8 7.2 8.8V8.8C7.64183 8.8 8 8.44183 8 8V8ZM11.2 8C11.2 7.55817 10.8418 7.2 10.4 7.2V7.2C9.95817 7.2 9.6 7.55817 9.6 8V8C9.6 8.44183 9.95817 8.8 10.4 8.8V8.8C10.8418 8.8 11.2 8.44183 11.2 8V8ZM12.8 1.6V1.6C12.3582 1.6 12 1.24183 12 0.8V0.8C12 0.358172 11.6418 0 11.2 0V0C10.7582 0 10.4 0.358172 10.4 0.8V0.8C10.4 1.24183 10.0418 1.6 9.6 1.6H4.8C4.35817 1.6 4 1.24183 4 0.8V0.8C4 0.358172 3.64183 0 3.2 0V0C2.75817 0 2.4 0.358172 2.4 0.8V0.8C2.4 1.24183 2.04183 1.6 1.6 1.6V1.6C0.712 1.6 0.00799999 2.32 0.00799999 3.2L0 14.4C0 15.28 0.712 16 1.6 16H12.8C13.68 16 14.4 15.28 14.4 14.4V3.2C14.4 2.32 13.68 1.6 12.8 1.6ZM12.8 13.4C12.8 13.9523 12.3523 14.4 11.8 14.4H2.6C2.04771 14.4 1.6 13.9523 1.6 13.4V6.6C1.6 6.04772 2.04772 5.6 2.6 5.6H11.8C12.3523 5.6 12.8 6.04772 12.8 6.6V13.4Z" fill="#2D8D79"/>
</svg>
