<svg width="71" height="36" viewBox="0 0 71 36" fill="none" xmlns="http://www.w3.org/2000/svg" id="logo">
<path d="M11.4571 16.4232C11.0494 16.4232 10.7437 16.3614 10.5398 16.2379C10.336 16.1143 10.2027 15.9445 10.1399 15.7283C10.0929 15.5121 10.0694 15.2727 10.0694 15.0102V1.64464C10.0694 1.39756 10.0929 1.17364 10.1399 0.972883C10.2027 0.756687 10.336 0.586819 10.5398 0.463279C10.7437 0.324295 11.0651 0.254804 11.5042 0.254804C11.8335 0.254804 12.0765 0.277967 12.2333 0.324294C12.4058 0.35518 12.5391 0.409229 12.6332 0.486442C12.7273 0.548213 12.8214 0.633147 12.9155 0.741245L18.3843 8.26806L23.8764 0.718081C23.9862 0.59454 24.0959 0.501884 24.2057 0.440114C24.3155 0.378343 24.4566 0.332016 24.6291 0.301131C24.8016 0.270246 25.029 0.254804 25.3112 0.254804C25.7346 0.254804 26.0482 0.324295 26.2521 0.463279C26.4559 0.586819 26.5814 0.756687 26.6284 0.972883C26.6911 1.18908 26.7225 1.42844 26.7225 1.69096V15.0565C26.7225 15.2882 26.6911 15.5121 26.6284 15.7283C26.5814 15.9445 26.4559 16.1143 26.2521 16.2379C26.0482 16.3614 25.7268 16.4232 25.2877 16.4232C24.8643 16.4232 24.5507 16.3537 24.3468 16.2147C24.143 16.0912 24.0097 15.9213 23.947 15.7051C23.8999 15.4889 23.8764 15.2573 23.8764 15.0102V5.07289L19.5955 11.165C19.5485 11.2268 19.4779 11.3117 19.3838 11.4198C19.2897 11.5125 19.1643 11.5974 19.0075 11.6746C18.8507 11.7518 18.639 11.7904 18.3724 11.7904C18.1215 11.7904 17.9177 11.7518 17.7609 11.6746C17.604 11.5974 17.4786 11.5125 17.3845 11.4198L17.1493 11.1418L12.8919 5.07289V15.0565C12.8919 15.2882 12.8606 15.5121 12.7979 15.7283C12.7508 15.9445 12.6254 16.1143 12.4215 16.2379C12.2177 16.3614 11.8962 16.4232 11.4571 16.4232Z" fill="#2D8D79"/>
<path d="M36.256 16.5622C35.1583 16.5622 34.1783 16.3691 33.3158 15.9831C32.469 15.5816 31.7556 15.0334 31.1754 14.3384C30.5952 13.6281 30.1561 12.8251 29.8582 11.9294C29.5602 11.0183 29.4113 10.0531 29.4113 9.03392V1.64464C29.4113 1.38211 29.4348 1.15047 29.4818 0.94972C29.5446 0.733523 29.67 0.563655 29.8582 0.440114C30.062 0.30113 30.3913 0.231639 30.8461 0.231639C31.3008 0.231639 31.6223 0.30113 31.8104 0.440114C32.0143 0.563655 32.1397 0.733523 32.1868 0.94972C32.2495 1.15047 32.2809 1.38983 32.2809 1.6678V9.03392C32.2809 9.88326 32.422 10.6708 32.7043 11.3966C33.0022 12.107 33.4491 12.6784 34.045 13.1108C34.6409 13.5432 35.4014 13.7594 36.3265 13.7594C37.1576 13.7594 37.8711 13.5663 38.467 13.1803C39.0629 12.7942 39.5176 12.246 39.8312 11.5356C40.1605 10.8253 40.3252 9.98364 40.3252 9.01075V1.52882C40.3252 1.28174 40.3487 1.06554 40.3957 0.880227C40.4585 0.694917 40.5918 0.540491 40.7956 0.41695C40.9995 0.293409 41.3209 0.231639 41.76 0.231639C42.2147 0.231639 42.5362 0.30113 42.7244 0.440114C42.9282 0.563655 43.0537 0.733523 43.1007 0.94972C43.1477 1.16592 43.1713 1.40528 43.1713 1.6678V9.08025C43.1713 10.0995 43.0223 11.0646 42.7244 11.9757C42.4264 12.8714 41.9795 13.6667 41.3836 14.3616C40.7878 15.0411 40.0586 15.5816 39.1962 15.9831C38.3494 16.3691 37.3693 16.5622 36.256 16.5622Z" fill="#2D8D79"/>
<path d="M50.2017 16.6548C49.4961 16.6548 48.8532 16.5699 48.273 16.4C47.7085 16.2302 47.2067 16.014 46.7676 15.7514C46.3442 15.4889 45.9836 15.2187 45.6857 14.9407C45.3877 14.6627 45.1682 14.4079 45.0271 14.1763C44.8232 13.8983 44.6899 13.6513 44.6272 13.4351C44.5645 13.2189 44.5801 13.0104 44.6742 12.8096C44.784 12.5934 44.98 12.3695 45.2623 12.1379C45.5445 11.8908 45.8033 11.7673 46.0385 11.7673C46.2894 11.7518 46.5246 11.8213 46.7441 11.9757C46.9793 12.1302 47.2067 12.3464 47.4262 12.6243C47.8026 13.1185 48.226 13.4737 48.6964 13.6899C49.1668 13.8906 49.6372 13.991 50.1077 13.991C50.7192 13.991 51.2524 13.9138 51.7071 13.7594C52.1619 13.5895 52.5147 13.3424 52.7656 13.0181C53.0322 12.6938 53.1654 12.2769 53.1654 11.7673C53.1654 11.3503 53.0322 11.0106 52.7656 10.748C52.5147 10.4701 52.1775 10.2384 51.7542 10.0531C51.3308 9.85238 50.8525 9.67479 50.3194 9.52036C49.8019 9.35049 49.2766 9.16518 48.7434 8.96443C48.3671 8.84089 47.9907 8.69418 47.6144 8.52431C47.2381 8.339 46.8852 8.13053 46.5559 7.89889C46.2423 7.66725 45.9601 7.397 45.7092 7.08815C45.474 6.76386 45.2858 6.39323 45.1447 5.97628C45.0035 5.55933 44.933 5.07289 44.933 4.51696C44.933 3.63673 45.1525 2.8646 45.5916 2.20057C46.0306 1.5211 46.6422 0.988326 47.4262 0.602262C48.2103 0.200754 49.1041 0 50.1077 0C50.7506 0 51.3229 0.0617705 51.8247 0.185311C52.3422 0.293409 52.7813 0.440114 53.1419 0.625425C53.5183 0.795293 53.824 0.972883 54.0592 1.15819C54.3101 1.32806 54.4905 1.47477 54.6002 1.59831C54.9609 1.95349 55.1569 2.25462 55.1883 2.5017C55.2353 2.73334 55.0942 3.04991 54.7649 3.45142C54.4356 3.86837 54.1141 4.10001 53.8005 4.14634C53.5026 4.17722 53.1654 4.05368 52.7891 3.77571C52.5382 3.51319 52.2873 3.30472 52.0364 3.15029C51.7855 2.98042 51.5033 2.85688 51.1896 2.77967C50.8917 2.70245 50.5232 2.66385 50.0841 2.66385C49.7705 2.66385 49.4647 2.71018 49.1668 2.80283C48.8846 2.88004 48.6415 3.00359 48.4376 3.17345C48.2338 3.32788 48.0691 3.52091 47.9437 3.75255C47.8339 3.98419 47.7791 4.24671 47.7791 4.54012C47.7791 4.94163 47.8888 5.27365 48.1084 5.53617C48.3436 5.78325 48.6572 5.99173 49.0492 6.1616C49.4412 6.31602 49.8803 6.46273 50.3664 6.60171C50.8525 6.74069 51.3465 6.8874 51.8482 7.04182C52.3657 7.21169 52.8753 7.41245 53.3771 7.64408C53.8789 7.87572 54.3258 8.16913 54.7178 8.52431C55.1099 8.86405 55.4235 9.29644 55.6587 9.82149C55.8939 10.3311 56.0115 10.9565 56.0115 11.6978C56.0115 12.5471 55.8469 13.2884 55.5176 13.9215C55.1883 14.5546 54.7414 15.072 54.1769 15.4735C53.6123 15.875 52.9851 16.1684 52.2951 16.3537C51.6052 16.5545 50.9074 16.6548 50.2017 16.6548Z" fill="#2D8D79"/>
<path d="M69.0894 0.231639C69.3246 0.231639 69.5285 0.254803 69.7009 0.301131C69.8891 0.347459 70.0381 0.463278 70.1478 0.648589C70.2576 0.818458 70.3125 1.09642 70.3125 1.48249C70.3125 1.86855 70.2576 2.15424 70.1478 2.33955C70.0381 2.50942 69.8891 2.61752 69.7009 2.66385C69.5128 2.69473 69.3011 2.71018 69.0659 2.71018H64.7379V15.0565C64.7379 15.3191 64.7066 15.5584 64.6439 15.7746C64.5968 15.9754 64.4714 16.1375 64.2675 16.2611C64.0793 16.3846 63.7579 16.4464 63.3031 16.4464C62.8798 16.4464 62.5661 16.3769 62.3623 16.2379C62.1584 16.1143 62.033 15.9522 61.9859 15.7514C61.9389 15.5352 61.9154 15.2959 61.9154 15.0334V2.71018H57.5404C57.3209 2.71018 57.117 2.68701 56.9289 2.64068C56.7407 2.59436 56.5839 2.48626 56.4584 2.31639C56.3487 2.14652 56.2938 1.86855 56.2938 1.48249C56.2938 1.09642 56.3487 0.818458 56.4584 0.648589C56.5682 0.463278 56.7172 0.347459 56.9053 0.301131C57.1092 0.254803 57.3209 0.231639 57.5404 0.231639H69.0894Z" fill="#2D8D79"/>
<path fill-rule="evenodd" clip-rule="evenodd" d="M11.4101 35.7915C11.0024 35.7915 10.6966 35.722 10.4928 35.5831C10.2889 35.4595 10.1556 35.2896 10.0929 35.0734C10.0302 34.8573 9.99881 34.6256 9.99881 34.3785V20.9898C9.99881 20.7427 10.0223 20.5188 10.0694 20.318C10.1321 20.1018 10.2654 19.932 10.4692 19.8084C10.6731 19.6695 10.9945 19.6 11.4336 19.6L15.8556 19.6231C17.0003 19.6231 18.051 19.8162 19.0075 20.2022C19.9797 20.5883 20.8186 21.1365 21.5243 21.8469C22.2299 22.5572 22.7709 23.4066 23.1472 24.3949C23.5393 25.3678 23.7353 26.441 23.7353 27.6147C23.7353 28.8192 23.5393 29.9233 23.1472 30.9271C22.7552 31.9309 22.2064 32.7957 21.5008 33.5215C20.7951 34.2473 19.9562 34.8109 18.984 35.2124C18.0274 35.5985 16.9611 35.7915 15.7851 35.7915H11.4101ZM12.8449 32.9887H15.8556C16.8592 32.9887 17.7373 32.7725 18.49 32.3401C19.2427 31.8923 19.8229 31.2746 20.2306 30.487C20.654 29.6994 20.8657 28.7806 20.8657 27.7305C20.8657 26.665 20.654 25.7384 20.2306 24.9508C19.8229 24.1478 19.2349 23.5301 18.4665 23.0977C17.7138 22.6499 16.8357 22.426 15.8321 22.426H12.8449V32.9887Z" fill="#2D8D79"/>
<path fill-rule="evenodd" clip-rule="evenodd" d="M33.4187 36C32.2897 36 31.2312 35.7915 30.2433 35.3746C29.2711 34.9422 28.4087 34.3554 27.656 33.6141C26.9033 32.8574 26.3153 31.9926 25.8919 31.0198C25.4685 30.0314 25.2568 28.9736 25.2568 27.8463C25.2568 26.6881 25.4607 25.6071 25.8684 24.6034C26.2918 23.5842 26.8641 22.6962 27.5854 21.9395C28.3224 21.1674 29.1692 20.5651 30.1257 20.1327C31.0823 19.7003 32.1094 19.4841 33.207 19.4841C34.3517 19.4841 35.4102 19.7003 36.3824 20.1327C37.3703 20.5497 38.2328 21.1365 38.9698 21.8932C39.7068 22.6499 40.287 23.5301 40.7103 24.5339C41.1337 25.5222 41.3454 26.5955 41.3454 27.7537C41.3454 28.881 41.1416 29.9465 40.7339 30.9503C40.3262 31.9386 39.7538 32.8188 39.0168 33.591C38.2798 34.3476 37.433 34.9422 36.4765 35.3746C35.5356 35.7915 34.5164 36 33.4187 36ZM33.3011 33.174C34.0224 33.174 34.6967 33.035 35.3239 32.7571C35.9512 32.4791 36.5 32.093 36.9704 31.5989C37.4565 31.1047 37.8329 30.5333 38.0995 29.8847C38.366 29.2207 38.4993 28.5103 38.4993 27.7537C38.4993 26.997 38.3582 26.2943 38.0759 25.6457C37.8094 24.9817 37.433 24.4026 36.9469 23.9084C36.4765 23.3988 35.9277 23.0051 35.3004 22.7271C34.6889 22.4491 34.0224 22.3101 33.3011 22.3101C32.5955 22.3101 31.929 22.4491 31.3018 22.7271C30.6746 23.0051 30.1179 23.3988 29.6318 23.9084C29.1614 24.4026 28.7929 24.9817 28.5263 25.6457C28.2597 26.3098 28.1264 27.0124 28.1264 27.7537C28.1264 28.4949 28.2597 29.1975 28.5263 29.8616C28.8085 30.5256 29.1849 31.1047 29.6553 31.5989C30.1257 32.093 30.6667 32.4791 31.2783 32.7571C31.9055 33.035 32.5798 33.174 33.3011 33.174Z" fill="#2D8D79"/>
<path d="M1.89563 0.113344C0.848705 0.113344 0 0.949149 0 1.98017V33.9962C0 35.0273 0.848705 35.8631 1.89563 35.8631C2.94256 35.8631 3.79127 35.0273 3.79127 33.9963V1.98017C3.79127 0.94915 2.94256 0.113344 1.89563 0.113344Z" fill="#2D8D79"/>
</svg>
