<svg width="16" height="16" viewBox="0 0 16 16" fill="none" xmlns="http://www.w3.org/2000/svg">
<path d="M7.996 0C3.576 0 0 3.58 0 8C0 12.42 3.576 16 7.996 16C12.416 16 16 12.42 16 8C16 3.58 12.416 0 7.996 0ZM8 14.4C4.464 14.4 1.6 11.536 1.6 8C1.6 4.464 4.464 1.6 8 1.6C11.536 1.6 14.4 4.464 14.4 8C14.4 11.536 11.536 14.4 8 14.4ZM8.4 4.6C8.4 4.26863 8.13137 4 7.8 4V4C7.46863 4 7.2 4.26863 7.2 4.6V8.23409C7.2 8.5852 7.38414 8.91059 7.68514 9.09136L10.9072 11.0264C11.1779 11.189 11.5291 11.1032 11.6943 10.8341V10.8341C11.8624 10.5602 11.7737 10.2018 11.4974 10.0378L8.88973 8.49057C8.58613 8.31044 8.4 7.98358 8.4 7.63056V4.6Z" fill="#2D8D79"/>
</svg>
